<?xml version="1.0" encoding="UTF-8"?>
<svg version="1.1" xmlns="http://www.w3.org/2000/svg" width="741" height="194">
<path d="M0 0 C244.53 0 489.06 0 741 0 C741 64.02 741 128.04 741 194 C496.47 194 251.94 194 0 194 C0 129.98 0 65.96 0 0 Z " fill="#EEEDE8" transform="translate(0,0)"/>
<path d="M0 0 C244.53 0 489.06 0 741 0 C741 64.02 741 128.04 741 194 C496.47 194 251.94 194 0 194 C0 129.98 0 65.96 0 0 Z M18 17 C18 69.8 18 122.6 18 177 C250.98 177 483.96 177 724 177 C724 124.2 724 71.4 724 17 C491.02 17 258.04 17 18 17 Z " fill="#EEEDE8" transform="translate(0,0)"/>
<path d="M0 0 C232.98 0 465.96 0 706 0 C706 52.8 706 105.6 706 160 C473.02 160 240.04 160 0 160 C0 107.2 0 54.4 0 0 Z M3 4 C3 54.49 3 104.98 3 157 C234 157 465 157 703 157 C703 106.51 703 56.02 703 4 C472 4 241 4 3 4 Z " fill="#87403A" transform="translate(18,17)"/>
<path d="M0 0 C5.85324352 -0.07442019 11.7062087 -0.12872982 17.55981445 -0.16479492 C19.5491211 -0.17983724 21.53839483 -0.20027623 23.52758789 -0.22631836 C26.39477689 -0.26290246 29.26152559 -0.27977218 32.12890625 -0.29296875 C33.01147598 -0.30845261 33.89404572 -0.32393646 34.80335999 -0.33988953 C40.31095544 -0.34137461 44.08947029 0.4763312 49 3 C49 3.66 49 4.32 49 5 C49.598125 5.2475 50.19625 5.495 50.8125 5.75 C53.41063783 7.23465019 54.44681996 8.44336094 56 11 C56.85848487 16.55308233 56.73654342 21.50060803 54.25 26.5625 C50.38617988 30.74830513 47.38552112 32.20482629 42 34 C41.505 34.99 41.505 34.99 41 36 C41.61746094 35.979375 42.23492187 35.95875 42.87109375 35.9375 C49.76458678 36.10537806 53.20137789 38.13128931 58.1875 42.796875 C61.41590416 46.72105592 62.55184931 50.65724334 62.359375 55.7578125 C61.40747736 61.69682605 59.02533547 66.36790485 54.32421875 70.15625 C47.76144913 74.39814613 43.07158166 76.15295321 35.26953125 76.09765625 C34.51911057 76.0962413 33.76868988 76.09482635 32.99552917 76.09336853 C30.6011454 76.0877756 28.20685547 76.07522444 25.8125 76.0625 C24.18815239 76.05748408 22.56380332 76.05292134 20.93945312 76.04882812 C16.95959931 76.03780848 12.97981556 76.02054873 9 76 C8.99191315 75.14000397 8.98382629 74.28000793 8.97549438 73.39395142 C8.89764573 65.3005644 8.81038489 57.20734595 8.71247292 49.1141758 C8.66246601 44.95310442 8.61613659 40.79205899 8.578125 36.63085938 C8.54132738 32.61721133 8.49498297 28.603778 8.44193649 24.59031296 C8.42336304 23.05690644 8.40826604 21.52345384 8.39665604 19.98997879 C8.37984359 17.84677254 8.35082212 15.70406119 8.31884766 13.56103516 C8.30552399 12.33969879 8.29220032 11.11836243 8.2784729 9.86001587 C8.29296656 6.86946433 8.29296656 6.86946433 6 5 C4.01178687 4.60235737 2.01055661 4.26224651 0 4 C0 2.68 0 1.36 0 0 Z " fill="#782D28" transform="translate(71,61)"/>
<path d="M0 0 C232.98 0 465.96 0 706 0 C706 52.47 706 104.94 706 159 C705.67 159 705.34 159 705 159 C705 107.19 705 55.38 705 2 C704.34 2.66 703.68 3.32 703 4 C700.90918111 4.24934233 700.90918111 4.24934233 698.26318252 4.24839699 C697.25529589 4.25289158 696.24740927 4.25738617 695.20898062 4.26201695 C694.09119284 4.25676292 692.97340506 4.2515089 691.82174492 4.24609566 C690.63757565 4.24840335 689.45340638 4.25071103 688.2333532 4.25308865 C684.92149292 4.2574961 681.60986129 4.25285075 678.29802262 4.24453239 C674.70451986 4.23769079 671.11103002 4.24240044 667.51752484 4.24568737 C661.21126944 4.24984456 654.90505169 4.2465308 648.59880066 4.23841095 C639.22155497 4.22637035 629.84433316 4.22573659 620.46708116 4.22749493 C604.69517821 4.23012652 588.92329197 4.22342554 573.15139389 4.21146011 C557.528542 4.19963807 541.90569706 4.19193065 526.28284073 4.18975449 C525.31253546 4.18961701 524.3422302 4.18947953 523.34252174 4.18933788 C518.41510822 4.18866124 513.4876947 4.18805847 508.56028117 4.18748413 C473.63246786 4.18327999 438.70466365 4.16979603 403.77685547 4.15087891 C369.83870492 4.13251896 335.90055686 4.11834737 301.96240234 4.10986328 C300.91682626 4.10960023 299.87125017 4.10933718 298.79398996 4.10906615 C288.29416927 4.10642918 277.79434857 4.10387754 267.29452784 4.10138843 C245.90396284 4.0963156 224.51339801 4.0906731 203.12283325 4.08468628 C202.13926559 4.0844117 201.15569792 4.08413712 200.14232517 4.08385422 C169.98647375 4.07540572 139.83062387 4.06454196 109.67477417 4.05130005 C108.81838501 4.05092493 107.96199584 4.05054982 107.07965549 4.05016333 C72.38643629 4.03493043 37.6932183 4.01714418 3 4 C3 54.49 3 104.98 3 157 C2.67 157 2.34 157 2 157 C2 105.85 2 54.7 2 2 C1.34 2 0.68 2 0 2 C0 1.34 0 0.68 0 0 Z " fill="#A46D67" transform="translate(18,17)"/>
<path d="M0 0 C18.48 0 36.96 0 56 0 C56 5.94 56 11.88 56 18 C54.68 18 53.36 18 52 18 C51.67386719 17.30132812 51.34773438 16.60265625 51.01171875 15.8828125 C50.57472656 14.97273438 50.13773438 14.06265625 49.6875 13.125 C49.25824219 12.22007813 48.82898438 11.31515625 48.38671875 10.3828125 C47.0800612 7.73550524 47.0800612 7.73550524 44 6 C41.68076726 5.63423946 41.68076726 5.63423946 39.11328125 5.5859375 C38.26805908 5.55032715 37.42283691 5.5147168 36.55200195 5.47802734 C34.94844849 5.42702881 34.94844849 5.42702881 33.3125 5.375 C29.909375 5.25125 26.50625 5.1275 23 5 C23 14.57 23 24.14 23 34 C26.6196875 33.9071875 26.6196875 33.9071875 30.3125 33.8125 C31.06829346 33.80581299 31.82408691 33.79912598 32.6027832 33.79223633 C34.73398263 33.73770448 34.73398263 33.73770448 38 33 C40.27539022 30.17411215 41.34223155 27.55194962 42 24 C43.32 24 44.64 24 46 24 C46 32.25 46 40.5 46 49 C44.68 49 43.36 49 42 49 C41.731875 48.071875 41.46375 47.14375 41.1875 46.1875 C39.84463511 42.45858011 39.84463511 42.45858011 37 40 C34.37060795 39.62355152 31.94927528 39.39866913 29.3125 39.3125 C28.61060547 39.27833984 27.90871094 39.24417969 27.18554688 39.20898438 C25.45758613 39.12670053 23.72881928 39.0616676 22 39 C22.11005392 43.39634104 22.24064462 47.79183979 22.375 52.1875 C22.4059375 53.43337891 22.436875 54.67925781 22.46875 55.96289062 C22.50742188 57.16494141 22.54609375 58.36699219 22.5859375 59.60546875 C22.6173584 60.71043701 22.6487793 61.81540527 22.68115234 62.95385742 C22.99877182 65.98826646 23.72246035 68.24544522 25 71 C28.39706569 70.94795144 31.79162222 70.85283764 35.1875 70.75 C36.14720703 70.73582031 37.10691406 70.72164063 38.09570312 70.70703125 C42.3222038 70.56078555 45.25666778 70.41038133 49 68.34375 C51.33438121 65.60814702 52.5352615 63.10731264 53.8125 59.75 C54.23144531 58.67234375 54.65039062 57.5946875 55.08203125 56.484375 C55.38496094 55.66453125 55.68789062 54.8446875 56 54 C57.65 54 59.3 54 61 54 C59.53366174 74.46633826 59.53366174 74.46633826 58 76 C56.18944975 76.09376053 54.37522799 76.1174411 52.56225586 76.11352539 C50.82056374 76.11341209 50.82056374 76.11341209 49.04368591 76.11329651 C47.14840904 76.10555458 47.14840904 76.10555458 45.21484375 76.09765625 C43.92888809 76.0962413 42.64293243 76.09482635 41.31800842 76.09336853 C37.89356557 76.08954418 34.46916491 76.07971462 31.04473877 76.06866455 C27.55261811 76.05844864 24.06049066 76.05387053 20.56835938 76.04882812 C13.71222222 76.03809227 6.85611313 76.02101684 0 76 C0.3125 74.07421875 0.3125 74.07421875 1 72 C4 70.8125 4 70.8125 7 70 C8.28510776 68.93905414 8.28510776 68.93905414 8.12025452 66.48802185 C8.11803391 65.37105423 8.11581329 64.25408661 8.11352539 63.10327148 C8.11344986 61.84203964 8.11337433 60.5808078 8.11329651 59.28135681 C8.1081891 57.89460206 8.10297309 56.50784771 8.09765625 55.12109375 C8.09579201 53.71004791 8.09436814 52.29900143 8.09336853 50.88795471 C8.08954379 47.16759465 8.0797139 43.4472734 8.06866455 39.72692871 C8.05844948 35.93319219 8.05387071 32.13944942 8.04882812 28.34570312 C8.03809158 20.89711769 8.0210157 13.44856428 8 6 C5.36 5.01 2.72 4.02 0 3 C0 2.01 0 1.02 0 0 Z " fill="#71241E" transform="translate(138,61)"/>
<path d="M0 0 C2.64 0 5.28 0 8 0 C8 6.6 8 13.2 8 20 C6.68 20 5.36 20 4 20 C3.56300781 18.77023438 3.56300781 18.77023438 3.1171875 17.515625 C1.37163637 12.92669184 -0.1612001 8.94633835 -3.4375 5.25 C-9.8026939 3.01659863 -17.5687812 2.8562604 -24 5 C-26.85156713 9.32055625 -26.71962295 14.01799494 -26 19 C-21.60536386 27.16146711 -11.42277129 30.33885617 -3 33 C-3 33.66 -3 34.32 -3 35 C-2.319375 35.20625 -1.63875 35.4125 -0.9375 35.625 C4.08299798 37.97502033 7.7968759 41.25352953 10.9375 45.8125 C13.31304195 52.93912585 12.25141555 58.9476472 9.28125 65.7578125 C7.342072 69.151374 5.26503459 70.87062962 2 73 C1.34 73 0.68 73 0 73 C0 73.66 0 74.32 0 75 C-5.2829023 77.16470143 -9.95292035 77.30206106 -15.5625 77.25 C-16.81836914 77.26160156 -16.81836914 77.26160156 -18.09960938 77.2734375 C-22.55647036 77.25932234 -25.91674246 76.96829995 -30 75 C-33.67237247 74.72457207 -36.28117212 75.25623442 -40 76 C-40 67.75 -40 59.5 -40 51 C-38.35 51.33 -36.7 51.66 -35 52 C-33.8125 54.29296875 -33.8125 54.29296875 -33 57.1875 C-31.33312708 62.28072282 -30.03459085 65.42388538 -26 69 C-19.93393634 71.62350854 -13.48558418 71.82852806 -7.25 69.75 C-3.26520659 67.6566505 -3.26520659 67.6566505 -1 64 C-0.6064697 59.86793188 -0.56191207 57.1773613 -2 53.3125 C-6.56813728 48.03059127 -12.55925947 45.73604103 -18.9375 43.1875 C-27.01079309 39.79550548 -33.49790073 35.5994906 -37.5625 27.625 C-39.63672235 22.04572598 -40.4406749 16.30842733 -38.01171875 10.73046875 C-36.79142305 8.69412391 -35.47721596 6.85621014 -34 5 C-33.443125 4.236875 -32.88625 3.47375 -32.3125 2.6875 C-23.1274704 -4.01508917 -10.3148936 -3.23604505 0 0 Z " fill="#732621" transform="translate(247,61)"/>
<path d="M0 0 C3.87474457 -0.11668214 7.74903396 -0.18741231 11.625 -0.25 C13.26662109 -0.30027344 13.26662109 -0.30027344 14.94140625 -0.3515625 C21.25899979 -0.42813939 25.25623595 -0.37138667 30 4 C31.55024464 7.10048928 31.28992015 9.57894218 31 13 C29.125 15.9375 29.125 15.9375 27 18 C26.34 18 25.68 18 25 18 C25 18.66 25 19.32 25 20 C25.7425 20.2475 26.485 20.495 27.25 20.75 C30.39631938 22.18014517 31.99110465 23.1726658 34 26 C34.46686441 30.20177965 34.43245834 32.81073955 33 36.75 C29.50125501 40.68608811 25.37203719 42.72865082 20.19140625 43.32128906 C17.11825861 43.39222322 14.07222899 43.34997241 11 43.25 C9.40865234 43.22292969 9.40865234 43.22292969 7.78515625 43.1953125 C5.1891428 43.14853748 2.59506472 43.08301142 0 43 C0 42.01 0 41.02 0 40 C1.32 39.34 2.64 38.68 4 38 C4 26.78 4 15.56 4 4 C2.68 3.34 1.36 2.68 0 2 C0 1.34 0 0.68 0 0 Z " fill="#7A2C27" transform="translate(281,78)"/>
<path d="M0 0 C4.12390506 1.57615904 7.52163441 3.52269456 11.1875 6 C12.23292969 6.70125 13.27835938 7.4025 14.35546875 8.125 C17 10 17 10 19 12 C19.24050903 14.3664856 19.24050903 14.3664856 19.22705078 17.36767578 C19.22689972 18.48868683 19.22674866 19.60969788 19.22659302 20.76467896 C19.21627045 21.97928802 19.20594788 23.19389709 19.1953125 24.4453125 C19.1924826 25.68546112 19.18965271 26.92560974 19.18673706 28.20333862 C19.17742174 31.50124633 19.1594489 34.79895972 19.1373291 38.09680176 C19.11687474 41.4616457 19.10773623 44.82651807 19.09765625 48.19140625 C19.07556519 54.79434723 19.04206483 61.39715771 19 68 C11.59886169 65.08064615 4.21381002 62.12797452 0 55 C-2.36921459 45.89953887 -1.31127738 36.10661926 -0.875 26.8125 C-0.80470542 24.21305808 -0.74083922 21.6134339 -0.68359375 19.01367188 C-0.53000575 12.67177794 -0.29641131 6.33673983 0 0 Z " fill="#EDEEE9" transform="translate(53,62)"/>
<path d="M0 0 C3.64778981 1.45911592 6.37468637 2.72643874 9.609375 4.78515625 C10.86427734 5.58083008 10.86427734 5.58083008 12.14453125 6.39257812 C13.00433594 6.94365234 13.86414063 7.49472656 14.75 8.0625 C15.62527344 8.61744141 16.50054687 9.17238281 17.40234375 9.74414062 C23.84353345 13.84353345 23.84353345 13.84353345 25 15 C25.09413687 17.05556661 25.11742998 19.11440181 25.11352539 21.17211914 C25.11367142 21.81600082 25.11381744 22.45988251 25.1139679 23.12327576 C25.11326885 25.26060303 25.10547691 27.39784413 25.09765625 29.53515625 C25.09579204 31.01346285 25.09436815 32.49177007 25.09336853 33.97007751 C25.08954359 37.86798802 25.07971352 41.76586149 25.06866455 45.66375732 C25.05844992 49.63846333 25.0538708 53.61317529 25.04882812 57.58789062 C25.03809122 65.391944 25.02101509 73.19596682 25 81 C20.91503194 79.8702227 17.31283846 78.83540053 13.6875 76.625 C9.73130761 74.32959827 5.73606951 72.59593982 1.45703125 70.9921875 C-1.43350537 69.82494378 -4.21178769 68.39410615 -7 67 C-7 47.53 -7 28.06 -7 8 C-3.535 9.485 -3.535 9.485 0 11 C0 7.37 0 3.74 0 0 Z M3 5 C2.56583358 12.59267126 2.27007387 20.18211356 2.06616211 27.78442383 C1.98111453 30.36441564 1.86541893 32.94359858 1.7175293 35.52075195 C0.41524104 49.5711448 0.41524104 49.5711448 4.69122314 62.49957275 C9.04045778 66.99909945 14.21974198 70.57113306 20 73 C20.66 73 21.32 73 22 73 C22.22858626 65.15348443 22.38596527 57.30782958 22.49438477 49.45874023 C22.53451205 46.7888575 22.60091755 44.1233298 22.67895508 41.45385742 C22.78840167 37.61321205 22.83922893 33.77551627 22.87890625 29.93359375 C22.92535782 28.74479111 22.97180939 27.55598846 23.01966858 26.3311615 C23.09125368 20.04181847 23.09125368 20.04181847 20.09249878 14.74636841 C17.80468588 12.94019723 15.52466539 11.45165945 13 10 C11.51753209 9.02583867 10.0377999 8.04748304 8.5625 7.0625 C5.97660529 5.36768448 5.97660529 5.36768448 3 5 Z " fill="#823D3A" transform="translate(50,57)"/>
<path d="M0 0 C8.25 0 16.5 0 25 0 C25 0.66 25 1.32 25 2 C24.01 2 23.02 2 22 2 C22.495 17.345 22.495 17.345 23 33 C23.66 33.33 24.32 33.66 25 34 C25 34.66 25 35.32 25 36 C24.34 36 23.68 36 23 36 C23.06898041 40.1998019 23.15699445 44.3986488 23.26245117 48.59765625 C23.29564794 50.02527914 23.32369631 51.45303163 23.34643555 52.88085938 C23.38008013 54.93675815 23.43239562 56.99147512 23.48828125 59.046875 C23.51446533 60.28276367 23.54064941 61.51865234 23.56762695 62.79199219 C24.02422634 66.1797482 24.60196074 67.61069146 27 70 C29.26300895 70.6921369 29.26300895 70.6921369 31.6875 70.75 C32.89986328 70.83507812 32.89986328 70.83507812 34.13671875 70.921875 C34.75160156 70.94765625 35.36648437 70.9734375 36 71 C35.34 71.99 34.68 72.98 34 74 C31.56982422 74.34057617 31.56982422 74.34057617 28.5546875 74.29296875 C27.47832031 74.28330078 26.40195313 74.27363281 25.29296875 74.26367188 C24.16503906 74.23853516 23.03710938 74.21339844 21.875 74.1875 C20.73933594 74.17396484 19.60367188 74.16042969 18.43359375 74.14648438 C15.62192613 74.11104319 12.81119583 74.06163517 10 74 C9.99413376 73.16728073 9.98826752 72.33456146 9.98222351 71.47660828 C9.92434891 63.63364765 9.85230265 55.79097341 9.76428509 47.94829082 C9.71953412 43.91614971 9.68028872 39.88411073 9.65356445 35.85180664 C9.62757818 31.96126837 9.58720977 28.07112217 9.53681374 24.18082619 C9.52011319 22.69570602 9.50861877 21.21051799 9.50238609 19.725317 C9.4927791 17.64678095 9.46476379 15.56925515 9.43237305 13.4909668 C9.42126999 12.30738083 9.41016693 11.12379486 9.39872742 9.90434265 C9.23175373 7.02014986 9.23175373 7.02014986 7.67219543 5.13728333 C5.25094185 3.49055515 2.86943647 3.31882627 0 3 C0 2.01 0 1.02 0 0 Z " fill="#70231D" transform="translate(71,62)"/>
<path d="M0 0 C0.66 0 1.32 0 2 0 C2.33 51.15 2.66 102.3 3 155 C233.34 155.33 463.68 155.66 701 156 C701 156.33 701 156.66 701 157 C469.67 157 238.34 157 0 157 C0 105.19 0 53.38 0 0 Z " fill="#6F1B17" transform="translate(18,19)"/>
<path d="M0 0 C4.71362305 1.9901964 7.72172827 5.44345654 10 10 C10.54360446 14.95482094 10.56437074 18.87125852 8.3125 23.375 C7.549375 24.24125 6.78625 25.1075 6 26 C5.34 26.78375 4.68 27.5675 4 28.375 C-0.81910106 30.98534641 -5.64709487 30.72757934 -11 30 C-15.40955145 27.66023801 -17.35521635 24.67464828 -19 20 C-19.66767927 15.00054788 -19.58126302 11.20723857 -17.375 6.625 C-12.12205942 0.81911831 -7.70279272 -1.16968334 0 0 Z " fill="#7B2D2A" transform="translate(339,91)"/>
<path d="M0 0 C4.26425261 2.31404834 7.31237475 4.96856213 10 9 C10.74295102 15.14623118 10.66707053 20.81552098 7 26 C4.79511442 28.46428388 3.23863158 29.81373961 -0.078125 30.3125 C-4.96038785 30.44535069 -9.53537655 30.06059544 -14 28 C-17.48096974 24.39565411 -19.3041029 20.50426011 -19.625 15.5 C-19.25592273 9.40495243 -16.22269236 4.97572654 -11.75 1 C-7.70809494 -0.46978366 -4.23532443 -0.88646325 0 0 Z " fill="#843C37" transform="translate(372,91)"/>
<path d="M0 0 C4.26425261 2.31404834 7.31237475 4.96856213 10 9 C10.68623474 14.52977532 10.70120021 19.46275339 8.375 24.5625 C4.72481011 28.30874752 1.78728836 29.83751924 -3.4375 30.3125 C-7.31872062 29.97204205 -10.39124887 29.49797217 -14 28 C-17.78453448 23.3191284 -19.42598035 19.25983539 -19.34765625 13.1953125 C-18.5491429 8.15301473 -15.48189649 4.31724132 -11.75 1 C-7.70809494 -0.46978366 -4.23532443 -0.88646325 0 0 Z " fill="#833A35" transform="translate(486,91)"/>
<path d="M0 0 C2.06980894 -0.07124274 4.14033089 -0.12195721 6.2109375 -0.1640625 C7.36384277 -0.1945166 8.51674805 -0.2249707 9.70458984 -0.25634766 C14.76557569 0.1373429 17.67925009 2.29608664 21 6 C24.3553823 10.71850636 24.87092643 15.37684454 24 21 C23.00510215 23.89690844 21.86350915 26.55687094 20 29 C19.01 29.33 18.02 29.66 17 30 C16.67 30.99 16.34 31.98 16 33 C13.89695523 33.1080023 11.79233091 33.18558987 9.6875 33.25 C8.51574219 33.29640625 7.34398438 33.3428125 6.13671875 33.390625 C3 33 3 33 1.32226562 31.39648438 C-0.43779649 28.20653428 -0.34077012 25.89852911 -0.29296875 22.265625 C-0.28330078 20.97011719 -0.27363281 19.67460938 -0.26367188 18.33984375 C-0.23860783 16.97655646 -0.21321302 15.61327521 -0.1875 14.25 C-0.17244518 12.87110816 -0.15875817 11.49220065 -0.14648438 10.11328125 C-0.11111909 6.74179085 -0.06175904 3.37109346 0 0 Z " fill="#EAEAE5" transform="translate(94,99)"/>
<path d="M0 0 C0.33 0.66 0.66 1.32 1 2 C1.99 1.34 2.98 0.68 4 0 C8.41791136 -0.63703965 12.04053773 -0.4699407 16.0625 1.5 C16.701875 1.995 17.34125 2.49 18 3 C18.556875 2.51660156 19.11375 2.03320312 19.6875 1.53515625 C22.34314248 -0.2277956 23.84061324 -0.49025792 27 -0.5625 C27.845625 -0.60503906 28.69125 -0.64757812 29.5625 -0.69140625 C32 0 32 0 34.27734375 2.39453125 C36.53617628 7.12220115 36.55877417 11.07854426 36.5625 16.25 C36.57140859 18.04698925 36.59291992 19.84397402 36.62890625 21.640625 C36.62963135 22.42985352 36.63035645 23.21908203 36.63110352 24.03222656 C36.75283936 24.6815918 36.8745752 25.33095703 37 26 C37.99 26.66 38.98 27.32 40 28 C35.38 28 30.76 28 26 28 C26 27.34 26 26.68 26 26 C26.99 25.67 27.98 25.34 29 25 C29.0269501 22.06243881 29.04681474 19.12512445 29.0625 16.1875 C29.07506836 14.93743164 29.07506836 14.93743164 29.08789062 13.66210938 C29.09111328 12.85966797 29.09433594 12.05722656 29.09765625 11.23046875 C29.10289307 10.49207764 29.10812988 9.75368652 29.11352539 8.99291992 C29.07523213 6.78942591 29.07523213 6.78942591 28 4 C25.03 4.66 22.06 5.32 19 6 C18.67 12.6 18.34 19.2 18 26 C18.99 26 19.98 26 21 26 C21 26.66 21 27.32 21 28 C16.71 28 12.42 28 8 28 C8 27.34 8 26.68 8 26 C8.99 25.67 9.98 25.34 11 25 C11.02689449 22.04160645 11.04678741 19.08345573 11.0625 16.125 C11.07087891 15.28324219 11.07925781 14.44148438 11.08789062 13.57421875 C11.09111328 12.76855469 11.09433594 11.96289062 11.09765625 11.1328125 C11.10289307 10.38918457 11.10812988 9.64555664 11.11352539 8.87939453 C11.11786636 6.90867432 11.11786636 6.90867432 10 5 C5.34947128 4.73067479 5.34947128 4.73067479 1 6 C0.67 12.27 0.34 18.54 0 25 C1.32 25.66 2.64 26.32 4 27 C4 27.66 4 28.32 4 29 C-0.95 29 -5.9 29 -11 29 C-10.505 27.515 -10.505 27.515 -10 26 C-9.01 25.67 -8.02 25.34 -7 25 C-7 18.4 -7 11.8 -7 5 C-7.99 4.67 -8.98 4.34 -10 4 C-10 3.34 -10 2.68 -10 2 C-6.38026598 0.68373308 -3.90432869 0 0 0 Z " fill="#7B2F2B" transform="translate(534,92)"/>
<path d="M0 0 C0 9.9 0 19.8 0 30 C6.91425071 25.1147408 6.91425071 25.1147408 8 21 C7.34 21 6.68 21 6 21 C6 20.01 6 19.02 6 18 C10.29 18 14.58 18 19 18 C19 18.99 19 19.98 19 21 C17.329375 21.12375 17.329375 21.12375 15.625 21.25 C14.42875 21.4975 13.2325 21.745 12 22 C10.6830333 23.88370471 10.6830333 23.88370471 10 26 C9.01 26.66 8.02 27.32 7 28 C7.56665524 32.11313542 9.78152834 34.54427949 12.375 37.6875 C13.16648437 38.66074219 13.95796875 39.63398437 14.7734375 40.63671875 C16.84802891 43.21247965 16.84802891 43.21247965 20 44 C20 44.66 20 45.32 20 46 C16.37 46 12.74 46 9 46 C8.443125 44.7625 7.88625 43.525 7.3125 42.25 C5.4684158 38.52217387 3.50733021 36.33822014 0 34 C0 37.3 0 40.6 0 44 C1.32 44 2.64 44 4 44 C4 44.99 4 45.98 4 47 C-0.62 47 -5.24 47 -10 47 C-10 46.01 -10 45.02 -10 44 C-8.515 43.505 -8.515 43.505 -7 43 C-6.67 30.46 -6.34 17.92 -6 5 C-7.32 5 -8.64 5 -10 5 C-10 4.01 -10 3.02 -10 2 C-6.38026598 0.68373308 -3.90432869 0 0 0 Z " fill="#7D3330" transform="translate(396,74)"/>
<path d="M0 0 C4.90747239 0.04703648 7.65478622 1.66127933 11.33984375 4.796875 C14.40742817 7.9469617 14.82819709 10.47199095 15.3125 14.75 C14.74843844 20.29660535 12.8980896 24.5363222 8.875 28.4375 C5.75292015 29.50033569 3.53330918 29.53855286 0.25390625 29.5 C-0.7405249 29.49097656 -1.73495605 29.48195313 -2.75952148 29.47265625 C-3.51950439 29.46105469 -4.2794873 29.44945313 -5.0625 29.4375 C-5.08715881 25.46819011 -5.10534023 21.49890966 -5.11743164 17.52954102 C-5.12247057 16.17829614 -5.12930177 14.82705674 -5.13793945 13.47583008 C-5.15002419 11.53729566 -5.15519828 9.598722 -5.16015625 7.66015625 C-5.16539307 6.49234619 -5.17062988 5.32453613 -5.17602539 4.12133789 C-5.00197836 0.00671647 -3.78768406 0.21439721 0 0 Z " fill="#EBEAE5" transform="translate(99.0625,64.5625)"/>
<path d="M0 0 C9.9 0 19.8 0 30 0 C30 3.3 30 6.6 30 10 C29.34 10 28.68 10 28 10 C26.98133771 8.34467377 25.98189187 6.67739862 25 5 C22.43106162 3.71553081 20.23423663 3.67022856 17.375 3.4375 C15.60125 3.293125 13.8275 3.14875 12 3 C12 8.28 12 13.56 12 19 C13.44375 18.9175 14.8875 18.835 16.375 18.75 C17.18710937 18.70359375 17.99921875 18.6571875 18.8359375 18.609375 C21.18838927 18.2077908 21.18838927 18.2077908 22.2890625 15.953125 C22.52367187 15.30859375 22.75828125 14.6640625 23 14 C23.66 14 24.32 14 25 14 C25 18.62 25 23.24 25 28 C24.34 28 23.68 28 23 28 C22.34 26.35 21.68 24.7 21 23 C18.03 22.67 15.06 22.34 12 22 C12.33 27.61 12.66 33.22 13 39 C14.32 39.33 15.64 39.66 17 40 C17 40.66 17 41.32 17 42 C11.39 42 5.78 42 0 42 C0 41.34 0 40.68 0 40 C1.32 39.34 2.64 38.68 4 38 C4 26.78 4 15.56 4 4 C2.68 3.34 1.36 2.68 0 2 C0 1.34 0 0.68 0 0 Z " fill="#742520" transform="translate(433,78)"/>
<path d="M0 0 C4.22115884 2.46449543 4.22115884 2.46449543 6 5 C6.73531058 8.63145781 6.56809106 12.12644121 6.375 15.8125 C6.34792969 16.79154297 6.32085938 17.77058594 6.29296875 18.77929688 C6.22245648 21.18846621 6.12398568 23.59308819 6 26 C7.32 26 8.64 26 10 26 C9.67 26.99 9.34 27.98 9 29 C6.69 29.33 4.38 29.66 2 30 C1.67 28.68 1.34 27.36 1 26 C-0.65 26.66 -2.3 27.32 -4 28 C-4 28.66 -4 29.32 -4 30 C-12.23992322 30.621881 -12.23992322 30.621881 -15.0625 28.3125 C-16.20665743 25.490245 -16.5878683 24.01282506 -16 21 C-13.75 18.1875 -13.75 18.1875 -11 16 C-9.68 16 -8.36 16 -7 16 C-7 15.34 -7 14.68 -7 14 C-3.535 13.505 -3.535 13.505 0 13 C-0.18464366 8.65815798 -0.18464366 8.65815798 -2 5 C-3.99958364 4.95919217 -6.00045254 4.95745644 -8 5 C-8.66 6.65 -9.32 8.3 -10 10 C-11.65 10 -13.3 10 -15 10 C-14.92222823 7.27798809 -14.52551921 5.5508275 -12.62109375 3.5546875 C-8.48045297 0.31257504 -5.36025138 -0.97459116 0 0 Z " fill="#7B312D" transform="translate(593,91)"/>
<path d="M0 0 C3.00514807 0.49815797 4.13200178 0.88505832 6.1484375 3.10546875 C7.8984375 6.48046875 7.8984375 6.48046875 7.8984375 12.48046875 C1.6284375 12.48046875 -4.6415625 12.48046875 -11.1015625 12.48046875 C-8.680457 19.85829242 -8.680457 19.85829242 -6.1015625 23.48046875 C-3.66462939 23.84462922 -3.66462939 23.84462922 -0.9765625 23.66796875 C-0.06648437 23.64089844 0.84359375 23.61382812 1.78125 23.5859375 C2.47992187 23.55113281 3.17859375 23.51632813 3.8984375 23.48046875 C4.2284375 22.82046875 4.5584375 22.16046875 4.8984375 21.48046875 C5.8884375 21.48046875 6.8784375 21.48046875 7.8984375 21.48046875 C6.37955494 25.34671527 4.48901168 27.38596714 0.8984375 29.48046875 C-2.55166381 30.0989902 -5.65673345 30.14903755 -9.1015625 29.48046875 C-12.25991419 27.04590599 -13.90137745 24.78074632 -16.1015625 21.48046875 C-16.79711658 15.87559692 -16.87082101 10.99245962 -14.2890625 5.91796875 C-13.5671875 5.11359375 -12.8453125 4.30921875 -12.1015625 3.48046875 C-11.68261719 2.94679688 -11.26367188 2.413125 -10.83203125 1.86328125 C-7.63863951 -0.68854872 -3.92204748 -0.09971307 0 0 Z " fill="#8A4442" transform="translate(663.1015625,91.51953125)"/>
<path d="M0 0 C3.625 0.4375 3.625 0.4375 6 2.75 C8.93335988 7.60132595 9.15599802 11.90779653 8.625 17.4375 C7.87916209 20.05277578 6.93569413 22.01775698 5.625 24.4375 C2.75029507 25.87485246 0.80605412 25.81922649 -2.375 25.4375 C-6.31292457 21.39314503 -7.52502079 18.66442733 -7.5625 13.125 C-7.57667969 12.18011719 -7.59085937 11.23523438 -7.60546875 10.26171875 C-7.1589903 4.79046585 -5.82444864 0.75502112 0 0 Z " fill="#E7E7E1" transform="translate(367.375,93.5625)"/>
<path d="M0 0 C3.30315701 0.74152504 5.10641085 1.69093309 7.14453125 4.44140625 C9.2156282 9.50898389 8.96456385 15.36843384 8.0625 20.6875 C6.21484375 23.58203125 6.21484375 23.58203125 4.0625 25.6875 C1.0625 26.3125 1.0625 26.3125 -1.9375 25.6875 C-6.22485951 21.40014049 -7.10987362 17.7273083 -7.25 11.8125 C-7.20763262 7.92411556 -7.0733152 5.95913041 -5.3125 2.4375 C-2.9375 0.6875 -2.9375 0.6875 0 0 Z " fill="#E8E9E3" transform="translate(480.9375,93.3125)"/>
<path d="M0 0 C3.62104732 0.67894637 4.77392866 1.67685197 7 4.5625 C8.05336511 7.72259533 8.20032888 10.1178136 8.25 13.4375 C8.28867187 14.98050781 8.28867187 14.98050781 8.328125 16.5546875 C7.9248592 20.25129068 6.64771279 22.91478721 4 25.5625 C1.1875 25.9375 1.1875 25.9375 -2 25.5625 C-6.26100283 21.18633493 -7.18349985 18.24511204 -7.3125 12.25 C-7.34988281 11.11949219 -7.38726562 9.98898438 -7.42578125 8.82421875 C-6.78898528 3.94601111 -4.95828824 0.92967905 0 0 Z " fill="#E9E9E3" transform="translate(334,93.4375)"/>
<path d="M0 0 C2.06723714 3.10085571 2.24497423 3.72931681 2.1953125 7.23046875 C2.18886719 8.03291016 2.18242188 8.83535156 2.17578125 9.66210938 C2.15902344 10.49548828 2.14226563 11.32886719 2.125 12.1875 C2.11597656 13.03248047 2.10695313 13.87746094 2.09765625 14.74804688 C2.07410703 16.83215243 2.03823647 18.91611217 2 21 C0.68 21.33 -0.64 21.66 -2 22 C-2 22.66 -2 23.32 -2 24 C2.62 24 7.24 24 12 24 C12 24.33 12 24.66 12 25 C7.05 25 2.1 25 -3 25 C-3.33 24.34 -3.66 23.68 -4 23 C-4.66 23 -5.32 23 -6 23 C-6 23.66 -6 24.32 -6 25 C-10.95 25 -15.9 25 -21 25 C-20.67 24.34 -20.34 23.68 -20 23 C-15.71 23.33 -11.42 23.66 -7 24 C-7 23.34 -7 22.68 -7 22 C-7.99 22 -8.98 22 -10 22 C-10.08685287 18.70849875 -10.14033895 15.4172904 -10.1875 12.125 C-10.21263672 11.18785156 -10.23777344 10.25070313 -10.26367188 9.28515625 C-10.27333984 8.38925781 -10.28300781 7.49335937 -10.29296875 6.5703125 C-10.3086792 5.74289551 -10.32438965 4.91547852 -10.34057617 4.06298828 C-10.22818604 3.38220215 -10.1157959 2.70141602 -10 2 C-6.32003497 -0.45331002 -4.34586828 -0.39507893 0 0 Z " fill="#E4E1DC" transform="translate(562,96)"/>
<path d="M0 0 C2.475 0.495 2.475 0.495 5 1 C6.1875 3.29296875 6.1875 3.29296875 7 6.1875 C8.66687292 11.28072282 9.96540915 14.42388538 14 18 C20.35050138 20.74652486 27.36021915 20.60964384 34 19 C33.67 19.66 33.34 20.32 33 21 C30.20251159 21.93249614 28.45679119 22.13476152 25.5625 22.125 C24.80066406 22.12757813 24.03882813 22.13015625 23.25390625 22.1328125 C21.04684141 22.00276015 19.12030724 21.60856199 17 21 C17.33 21.99 17.66 22.98 18 24 C23.28 24.33 28.56 24.66 34 25 C34 25.33 34 25.66 34 26 C30.93726169 26.05410136 27.87548548 26.09372225 24.8125 26.125 C23.94818359 26.14175781 23.08386719 26.15851563 22.19335938 26.17578125 C17.62490734 26.21078855 14.18028696 26.05417543 10 24 C6.32762753 23.72457207 3.71882788 24.25623442 0 25 C0 16.75 0 8.5 0 0 Z " fill="#823A35" transform="translate(207,112)"/>
<path d="M0 0 C5.61 0 11.22 0 17 0 C17 0.33 17 0.66 17 1 C14.69 1.33 12.38 1.66 10 2 C9.67 7.28 9.34 12.56 9 18 C11.97 18 14.94 18 18 18 C17.67 18.66 17.34 19.32 17 20 C14.36 20 11.72 20 9 20 C9.14120016 22.58366245 9.28778333 25.16682885 9.4375 27.75 C9.47681641 28.47960937 9.51613281 29.20921875 9.55664062 29.9609375 C9.76391535 33.46866362 10.1440061 36.57602438 11 40 C8.03 40 5.06 40 2 40 C2.01047363 38.89487061 2.02094727 37.78974121 2.03173828 36.65112305 C2.06792407 32.55301144 2.09089529 28.45491397 2.10986328 24.35668945 C2.11992411 22.58257676 2.13357422 20.80848065 2.15087891 19.03442383 C2.17512378 16.48514716 2.18648218 13.93608963 2.1953125 11.38671875 C2.20563507 10.59287277 2.21595764 9.79902679 2.22659302 8.98112488 C2.2273811 5.11776957 2.19440369 3.29160554 0 0 Z " fill="#73241F" transform="translate(283,79)"/>
<path d="M0 0 C0.33 1.32 0.66 2.64 1 4 C1.350625 3.34 1.70125 2.68 2.0625 2 C4 0 4 0 7.6875 -0.25 C8.780625 -0.1675 9.87375 -0.085 11 0 C11.33 1.65 11.66 3.3 12 5 C9.41891761 5.51621648 6.83983949 6.02912009 4.25 6.5 C2.04154394 6.77949757 2.04154394 6.77949757 1 8 C0.91368126 9.34267413 0.89293527 10.68974322 0.90234375 12.03515625 C0.90556641 12.84404297 0.90878906 13.65292969 0.91210938 14.48632812 C0.92048828 15.33646484 0.92886719 16.18660156 0.9375 17.0625 C0.94201172 17.91650391 0.94652344 18.77050781 0.95117188 19.65039062 C0.96299627 21.76695663 0.98093231 23.88348685 1 26 C2.32 26 3.64 26 5 26 C5 26.99 5 27.98 5 29 C0.05 29 -4.9 29 -10 29 C-9.505 27.515 -9.505 27.515 -9 26 C-8.01 26 -7.02 26 -6 26 C-6.33 19.07 -6.66 12.14 -7 5 C-7.99 4.67 -8.98 4.34 -10 4 C-9.67 3.01 -9.34 2.02 -9 1 C-6.04335481 -0.4783226 -3.25770263 -0.06032783 0 0 Z " fill="#823C37" transform="translate(510,92)"/>
<path d="M0 0 C1.32 0.33 2.64 0.66 4 1 C3.98548294 1.85658203 3.98548294 1.85658203 3.97067261 2.73046875 C3.87937995 8.70134949 3.85863558 14.66958781 3.87792969 20.64111328 C3.87598898 22.86613594 3.85636042 25.091219 3.81835938 27.31591797 C3.09791093 39.81213551 3.09791093 39.81213551 7.16113281 51.14453125 C9.69289122 53.14911117 12.13449789 54.53610818 15 56 C17.32373047 58.171875 17.32373047 58.171875 19 60 C14 59 14 59 0 52 C0 34.84 0 17.68 0 0 Z " fill="#E3E2DE" transform="translate(46,70)"/>
<path d="M0 0 C0.33 0.66 0.66 1.32 1 2 C1.99 1.34 2.98 0.68 4 0 C6.26171875 -0.1953125 6.26171875 -0.1953125 8.6875 -0.125 C9.89986328 -0.09792969 9.89986328 -0.09792969 11.13671875 -0.0703125 C12.05904297 -0.03550781 12.05904297 -0.03550781 13 0 C12.0625 1.875 12.0625 1.875 10 4 C7.03 4.66 4.06 5.32 1 6 C0.67 12.27 0.34 18.54 0 25 C1.32 25.66 2.64 26.32 4 27 C4 27.66 4 28.32 4 29 C-0.95 29 -5.9 29 -11 29 C-10.505 27.515 -10.505 27.515 -10 26 C-9.01 25.67 -8.02 25.34 -7 25 C-7 18.4 -7 11.8 -7 5 C-7.99 4.67 -8.98 4.34 -10 4 C-10 3.34 -10 2.68 -10 2 C-6.38026598 0.68373308 -3.90432869 0 0 0 Z " fill="#7F3834" transform="translate(534,92)"/>
<path d="M0 0 C1.65 0 3.3 0 5 0 C3.53366174 20.46633826 3.53366174 20.46633826 2 22 C0.18944975 22.09376053 -1.62477201 22.1174411 -3.43774414 22.11352539 C-5.17943626 22.11341209 -5.17943626 22.11341209 -6.95631409 22.11329651 C-8.85159096 22.10555458 -8.85159096 22.10555458 -10.78515625 22.09765625 C-12.07111191 22.0962413 -13.35706757 22.09482635 -14.68199158 22.09336853 C-18.10643443 22.08954418 -21.53083509 22.07971462 -24.95526123 22.06866455 C-28.44738189 22.05844864 -31.93950934 22.05387053 -35.43164062 22.04882812 C-42.28777778 22.03809227 -49.14388687 22.02101684 -56 22 C-55.505 20.515 -55.505 20.515 -55 19 C-55 19.66 -55 20.32 -55 21 C-49.10931297 21.00533197 -43.22060392 20.97173756 -37.33032227 20.90234375 C-35.3274608 20.88419631 -33.32447421 20.87661297 -31.3215332 20.87988281 C-28.43863368 20.88274354 -25.55832201 20.84739274 -22.67578125 20.8046875 C-21.78288895 20.81378143 -20.88999664 20.82287537 -19.970047 20.83224487 C-15.32699748 20.79689867 -15.32699748 20.79689867 -11.3621521 18.67242432 C-9.82667134 16.87982336 -9.82667134 16.87982336 -8 14 C-7.319375 13.4225 -6.63875 12.845 -5.9375 12.25 C-2.87323462 8.69149827 -1.5721595 4.38197647 0 0 Z " fill="#803D38" transform="translate(194,115)"/>
<path d="M0 0 C2.3125 0.3125 2.3125 0.3125 3.3125 1.3125 C3.35313832 2.97867115 3.355221 4.64638095 3.3125 6.3125 C-0.06567425 7.15704356 -2.36215243 7.42094919 -5.6875 6.3125 C-6.60938461 9.07815382 -6.80535222 10.69533702 -6.78515625 13.54296875 C-6.78193359 14.34541016 -6.77871094 15.14785156 -6.77539062 15.97460938 C-6.76701172 16.80798828 -6.75863281 17.64136719 -6.75 18.5 C-6.74548828 19.34498047 -6.74097656 20.18996094 -6.73632812 21.06054688 C-6.72455403 23.14456155 -6.7066189 25.22853977 -6.6875 27.3125 C-5.3675 27.3125 -4.0475 27.3125 -2.6875 27.3125 C-2.6875 27.9725 -2.6875 28.6325 -2.6875 29.3125 C-7.3075 29.3125 -11.9275 29.3125 -16.6875 29.3125 C-16.6875 28.6525 -16.6875 27.9925 -16.6875 27.3125 C-15.6975 27.3125 -14.7075 27.3125 -13.6875 27.3125 C-14.0175 20.3825 -14.3475 13.4525 -14.6875 6.3125 C-15.6775 5.9825 -16.6675 5.6525 -17.6875 5.3125 C-17.6875 4.6525 -17.6875 3.9925 -17.6875 3.3125 C-14.3875 2.6525 -11.0875 1.9925 -7.6875 1.3125 C-7.3575 2.3025 -7.0275 3.2925 -6.6875 4.3125 C-6.130625 3.6525 -5.57375 2.9925 -5 2.3125 C-2.6875 0.3125 -2.6875 0.3125 0 0 Z " fill="#7B322F" transform="translate(692.6875,90.6875)"/>
<path d="M0 0 C0.99 0 1.98 0 3 0 C3 2.64 3 5.28 3 8 C5.31 8 7.62 8 10 8 C10 8.99 10 9.98 10 11 C7.36 11 4.72 11 2 11 C2.13857841 14.12536637 2.28709569 17.25018217 2.4375 20.375 C2.47681641 21.26445313 2.51613281 22.15390625 2.55664062 23.0703125 C2.61948242 24.34648438 2.61948242 24.34648438 2.68359375 25.6484375 C2.72025146 26.43395996 2.75690918 27.21948242 2.79467773 28.02880859 C2.890891 30.07523496 2.890891 30.07523496 4 32 C6.31 32 8.62 32 11 32 C10.67 32.99 10.34 33.98 10 35 C9.34 35 8.68 35 8 35 C8 35.66 8 36.32 8 37 C2.04296875 37.390625 2.04296875 37.390625 0 37 C-2.86615732 33.97383875 -3.36468529 31.9086231 -3.29296875 27.796875 C-3.28330078 26.8171875 -3.27363281 25.8375 -3.26367188 24.828125 C-3.23853516 23.81234375 -3.21339844 22.7965625 -3.1875 21.75 C-3.17396484 20.71875 -3.16042969 19.6875 -3.14648438 18.625 C-3.11117607 16.08280208 -3.06186036 13.54166777 -3 11 C-4.65 11 -6.3 11 -8 11 C-8 10.34 -8 9.68 -8 9 C-6.68 9 -5.36 9 -4 9 C-3.71125 8.071875 -3.4225 7.14375 -3.125 6.1875 C-2 3 -2 3 0 0 Z " fill="#7B3230" transform="translate(633,84)"/>
<path d="M0 0 C0.99 0 1.98 0 3 0 C3.33 2.31 3.66 4.62 4 7 C6.31 7.33 8.62 7.66 11 8 C11 8.66 11 9.32 11 10 C8.36 10 5.72 10 3 10 C3.33 16.6 3.66 23.2 4 30 C6.64 30.33 9.28 30.66 12 31 C10.25 34.875 10.25 34.875 8 36 C6.125 36.203125 6.125 36.203125 4 36.25 C3.29875 36.27578125 2.5975 36.3015625 1.875 36.328125 C1.25625 36.21984375 0.6375 36.1115625 0 36 C-2.23413013 32.64880481 -2.23847762 31.5822245 -2.1953125 27.67578125 C-2.18886719 26.64775391 -2.18242188 25.61972656 -2.17578125 24.56054688 C-2.15902344 23.48869141 -2.14226563 22.41683594 -2.125 21.3125 C-2.11597656 20.22904297 -2.10695313 19.14558594 -2.09765625 18.02929688 C-2.0740734 15.3526429 -2.04116126 12.67643203 -2 10 C-3.65 10 -5.3 10 -7 10 C-6.67 9.01 -6.34 8.02 -6 7 C-5.01 6.67 -4.02 6.34 -3 6 C-1.29144978 2.99992729 -1.29144978 2.99992729 0 0 Z " fill="#752A25" transform="translate(612,85)"/>
<path d="M0 0 C0.33 0 0.66 0 1 0 C1 9.57 1 19.14 1 29 C4.6196875 28.9071875 4.6196875 28.9071875 8.3125 28.8125 C9.44619019 28.80246948 9.44619019 28.80246948 10.6027832 28.79223633 C12.73398263 28.73770448 12.73398263 28.73770448 16 28 C18.27539022 25.17411215 19.34223155 22.55194962 20 19 C21.32 19 22.64 19 24 19 C24 27.25 24 35.5 24 44 C22.68 44 21.36 44 20 44 C19.731875 43.071875 19.46375 42.14375 19.1875 41.1875 C17.83317422 37.47157003 17.83317422 37.47157003 15 35 C11.5776116 34.41781668 11.5776116 34.41781668 7.8125 34.3125 C6.54019531 34.24675781 5.26789063 34.18101563 3.95703125 34.11328125 C2.98121094 34.07589844 2.00539062 34.03851563 1 34 C1 33.67 1 33.34 1 33 C4.96 33 8.92 33 13 33 C13 32.34 13 31.68 13 31 C8.71 31 4.42 31 0 31 C0 20.77 0 10.54 0 0 Z " fill="#843E3A" transform="translate(160,66)"/>
<path d="M0 0 C18.48 0 36.96 0 56 0 C56 5.94 56 11.88 56 18 C54.68 18 53.36 18 52 18 C51.67386719 17.30132812 51.34773438 16.60265625 51.01171875 15.8828125 C50.57472656 14.97273438 50.13773438 14.06265625 49.6875 13.125 C49.25824219 12.22007813 48.82898438 11.31515625 48.38671875 10.3828125 C47.0800612 7.73550524 47.0800612 7.73550524 44 6 C41.68076726 5.63423946 41.68076726 5.63423946 39.11328125 5.5859375 C38.17548828 5.54726562 37.23769531 5.50859375 36.27148438 5.46875 C35.29501953 5.4378125 34.31855469 5.406875 33.3125 5.375 C31.83040039 5.31699219 31.83040039 5.31699219 30.31835938 5.2578125 C27.87909293 5.16354133 25.43983405 5.07793782 23 5 C23 4.67 23 4.34 23 4 C28.61 4 34.22 4 40 4 C40 3.34 40 2.68 40 2 C20.695 1.505 20.695 1.505 1 1 C0.67 1.66 0.34 2.32 0 3 C0 2.01 0 1.02 0 0 Z " fill="#833A34" transform="translate(138,61)"/>
<path d="M0 0 C4.46641443 -0.35030701 7.94914438 -0.49325876 12.0625 1.4375 C14.53375695 4.70593661 14.65180198 6.85467875 14.43359375 10.875 C13.81336094 13.91469955 12.49683357 15.23752924 10 17 C7.23749964 18.38125018 5.05268901 18.19079306 2 18 C0 16 0 16 -0.1953125 12.3046875 C-0.182009 10.82799892 -0.15814835 9.35137642 -0.125 7.875 C-0.11146484 6.74384766 -0.11146484 6.74384766 -0.09765625 5.58984375 C-0.0740687 3.72642746 -0.03819719 1.86317407 0 0 Z " fill="#EBECE7" transform="translate(293,100)"/>
<path d="M0 0 C0.33 0 0.66 0 1 0 C1 5.94 1 11.88 1 18 C-0.65 18.66 -2.3 19.32 -4 20 C-4 20.66 -4 21.32 -4 22 C-12.23992322 22.621881 -12.23992322 22.621881 -15.0625 20.3125 C-16.20665743 17.490245 -16.5878683 16.01282506 -16 13 C-13.75 10.1875 -13.75 10.1875 -11 8 C-9.68 8 -8.36 8 -7 8 C-7 7.34 -7 6.68 -7 6 C-3.535 5.505 -3.535 5.505 0 5 C0 3.35 0 1.7 0 0 Z " fill="#803C3A" transform="translate(593,99)"/>
<path d="M0 0 C7.10308504 -0.19226396 13.17194918 -0.14213359 20 2 C22.64 2 25.28 2 28 2 C28 8.6 28 15.2 28 22 C26.68 22 25.36 22 24 22 C23.56300781 20.77023438 23.56300781 20.77023438 23.1171875 19.515625 C20.62168136 12.90401537 20.62168136 12.90401537 16.4375 7.3125 C11.38494425 5.38334235 6.37256117 5.17386929 1 5 C1 4.67 1 4.34 1 4 C4.07617188 3.70703125 4.07617188 3.70703125 7.15234375 3.4140625 C7.76207031 3.27742188 8.37179688 3.14078125 9 3 C9.33 2.34 9.66 1.68 10 1 C6.7 1 3.4 1 0 1 C0 0.67 0 0.34 0 0 Z " fill="#762724" transform="translate(227,59)"/>
<path d="M0 0 C3.56285705 1.42514282 6.10349352 2.56412551 9.20703125 4.6015625 C9.95791016 5.09140625 10.70878906 5.58125 11.48242188 6.0859375 C12.25134766 6.59382813 13.02027344 7.10171875 13.8125 7.625 C14.60076172 8.140625 15.38902344 8.65625 16.20117188 9.1875 C18.1367352 10.45441417 20.06953942 11.72532964 22 13 C21.67 14.32 21.34 15.64 21 17 C20.05640625 16.32904297 20.05640625 16.32904297 19.09375 15.64453125 C18.2378125 15.03996094 17.381875 14.43539062 16.5 13.8125 C15.6646875 13.22082031 14.829375 12.62914063 13.96875 12.01953125 C10.37962018 9.57797847 6.68103872 7.3006492 3 5 C3 22.82 3 40.64 3 59 C2.67 59 2.34 59 2 59 C1.67 43.49 1.34 27.98 1 12 C-0.65 12.33 -2.3 12.66 -4 13 C-4 29.83 -4 46.66 -4 64 C-4.33 64 -4.66 64 -5 64 C-5 46.18 -5 28.36 -5 10 C-5.66 10 -6.32 10 -7 10 C-6.67 9.34 -6.34 8.68 -6 8 C-4.02 8.99 -2.04 9.98 0 11 C0 7.37 0 3.74 0 0 Z " fill="#945C55" transform="translate(50,57)"/>
<path d="M0 0 C0.87269531 -0.06058594 1.74539063 -0.12117188 2.64453125 -0.18359375 C5.1875 0.4375 5.1875 0.4375 7.4765625 2.82421875 C9.71704148 7.55582389 9.74627647 11.51923839 9.75 16.6875 C9.75890859 18.48448925 9.78041992 20.28147402 9.81640625 22.078125 C9.81713135 22.86735352 9.81785645 23.65658203 9.81860352 24.46972656 C9.94033936 25.1190918 10.0620752 25.76845703 10.1875 26.4375 C11.1775 27.0975 12.1675 27.7575 13.1875 28.4375 C8.5675 28.4375 3.9475 28.4375 -0.8125 28.4375 C-0.8125 27.7775 -0.8125 27.1175 -0.8125 26.4375 C0.1775 26.1075 1.1675 25.7775 2.1875 25.4375 C2.2144501 22.49993881 2.23431474 19.56262445 2.25 16.625 C2.25837891 15.79162109 2.26675781 14.95824219 2.27539062 14.09960938 C2.27861328 13.29716797 2.28183594 12.49472656 2.28515625 11.66796875 C2.29039307 10.92957764 2.29562988 10.19118652 2.30102539 9.43041992 C2.26273213 7.22692591 2.26273213 7.22692591 1.1875 4.4375 C-0.7925 4.4375 -2.7725 4.4375 -4.8125 4.4375 C-3.4925 3.7775 -2.1725 3.1175 -0.8125 2.4375 C-1.8025 2.4375 -2.7925 2.4375 -3.8125 2.4375 C-4.4725 2.1075 -5.1325 1.7775 -5.8125 1.4375 C-4.16013915 -0.21486085 -2.27036456 0.10969551 0 0 Z " fill="#803733" transform="translate(560.8125,91.5625)"/>
<path d="M0 0 C8.36025848 -0.48465267 8.36025848 -0.48465267 11.0625 1.5625 C12.33474496 4.8703369 12.31943205 7.48624741 12 11 C10 14 10 14 7 15 C4.69 15 2.38 15 0 15 C0 10.05 0 5.1 0 0 Z " fill="#EBEAE6" transform="translate(293,81)"/>
<path d="M0 0 C4.34079341 0.17022719 6.52038044 0.61222249 9.9375 3.375 C13.14674427 7.75990801 12.70791429 12.82914777 12 18 C10.51466979 22.15892458 8.95767748 24.90475898 5 27 C2.25 27.1875 2.25 27.1875 0 27 C0.33 26.34 0.66 25.68 1 25 C1.66 25 2.32 25 3 25 C5.25122309 18.38703216 6.32454197 12.25114846 3.625 5.625 C2.45089946 3.72837606 1.23732894 1.85599341 0 0 Z " fill="#7A2C28" transform="translate(370,93)"/>
<path d="M0 0 C3.87474457 -0.11668214 7.74903396 -0.18741231 11.625 -0.25 C13.26662109 -0.30027344 13.26662109 -0.30027344 14.94140625 -0.3515625 C21.25899979 -0.42813939 25.25623595 -0.37138667 30 4 C31.55024464 7.10048928 31.28992015 9.57894218 31 13 C29.1875 15.9375 29.1875 15.9375 27 18 C26.01 18 25.02 18 24 18 C23.67 18.99 23.34 19.98 23 21 C22.34 21 21.68 21 21 21 C21.875 15.125 21.875 15.125 23 14 C23.33856828 8.67326964 23.33856828 8.67326964 21 4 C18.80545319 3.42006301 18.80545319 3.42006301 16.375 3.3125 C15.55773437 3.24675781 14.74046875 3.18101563 13.8984375 3.11328125 C13.27195312 3.07589844 12.64546875 3.03851563 12 3 C12 2.67 12 2.34 12 2 C8.04 2 4.08 2 0 2 C0 1.34 0 0.68 0 0 Z " fill="#782C27" transform="translate(281,78)"/>
<path d="M0 0 C0.721875 0.165 1.44375 0.33 2.1875 0.5 C1.86136719 1.20382813 1.53523438 1.90765625 1.19921875 2.6328125 C-1.19825276 9.42719122 -0.08473554 17.50270451 1.1875 24.5 C-0.1325 24.83 -1.4525 25.16 -2.8125 25.5 C-6.68277372 19.88186073 -8.90641832 15.44453767 -7.8125 8.5 C-6.11521125 4.35185446 -4.62244122 0.82176733 0 0 Z " fill="#792C28" transform="translate(474.8125,93.5)"/>
<path d="M0 0 C0.66 0 1.32 0 2 0 C3.32 2.31 4.64 4.62 6 7 C9.3 7 12.6 7 16 7 C16.33 6.34 16.66 5.68 17 5 C17.99 5 18.98 5 20 5 C18.48111744 8.86624652 16.59057418 10.90549839 13 13 C7.89296249 13.91557087 4.25434324 13.87036061 -0.0625 10.875 C-2.14419243 7.78603703 -2.74277844 5.68684241 -3 2 C-2.34 2 -1.68 2 -1 2 C-0.67 1.34 -0.34 0.68 0 0 Z " fill="#7D3533" transform="translate(651,108)"/>
<path d="M0 0 C1.32 0.33 2.64 0.66 4 1 C4 21.13 4 41.26 4 62 C1.38444935 59.38444935 1.73464306 58.23481812 1.69702148 54.58813477 C1.68037949 53.45678604 1.66373749 52.32543732 1.64659119 51.1598053 C1.63817703 49.93273361 1.62976288 48.70566193 1.62109375 47.44140625 C1.60409927 46.18617661 1.5871048 44.93094696 1.56959534 43.63768005 C1.52535865 40.29662275 1.48908731 36.95568788 1.45739746 33.61450195 C1.41176911 28.90890316 1.35577247 24.20345364 1.29469299 19.49803162 C1.26269585 16.99179639 1.23581838 14.48548973 1.21446228 11.97914124 C1.20097244 10.84464035 1.1874826 9.71013947 1.17358398 8.54125977 C1.15931618 7.04140282 1.15931618 7.04140282 1.14476013 5.51124573 C1.10224289 2.87154918 1.10224289 2.87154918 0 0 Z " fill="#6F1A18" transform="translate(71,71)"/>
<path d="M0 0 C0.33 0 0.66 0 1 0 C1 19.14 1 38.28 1 58 C0.34 58 -0.32 58 -1 58 C-1.33 41.83 -1.66 25.66 -2 9 C-1.34 9 -0.68 9 0 9 C0 6.03 0 3.06 0 0 Z " fill="#6D1E1C" transform="translate(51,60)"/>
<path d="M0 0 C0.33 0 0.66 0 1 0 C1 5.28 1 10.56 1 16 C3.165625 15.87625 3.165625 15.87625 5.375 15.75 C6.18710937 15.70359375 6.99921875 15.6571875 7.8359375 15.609375 C10.18838927 15.2077908 10.18838927 15.2077908 11.2890625 12.953125 C11.52367187 12.30859375 11.75828125 11.6640625 12 11 C12.66 11 13.32 11 14 11 C14 15.62 14 20.24 14 25 C13.34 25 12.68 25 12 25 C11.34 23.35 10.68 21.7 10 20 C7.03 19.67 4.06 19.34 1 19 C1 23.95 1 28.9 1 34 C0.67 34 0.34 34 0 34 C0 22.78 0 11.56 0 0 Z " fill="#955E59" transform="translate(444,81)"/>
<path d="M0 0 C-0.77904328 13.6332574 -0.77904328 13.6332574 -3 20 C-3.99 19.67 -4.98 19.34 -6 19 C-6.9702889 16.08913331 -7.16467847 14.09776315 -7.1875 11.0625 C-7.20167969 10.20785156 -7.21585937 9.35320312 -7.23046875 8.47265625 C-6.98326864 5.82049233 -6.42003537 4.23928655 -5 2 C-1.7 0 -1.7 0 0 0 Z " fill="#7A2B26" transform="translate(327,95)"/>
<path d="M0 0 C0.36334661 7.38804781 0.36334661 7.38804781 -1.1875 10 C-3.62386024 11.34419875 -5.25973747 11.35131571 -8 11 C-8.66 10.34 -9.32 9.68 -10 9 C-9.83721806 5.82575224 -9.4716111 4.44017036 -7.125 2.25 C-4.74010858 0.84712269 -2.79433763 0 0 0 Z " fill="#DFD9D0" transform="translate(593,106)"/>
<path d="M0 0 C9.9 0 19.8 0 30 0 C30 3.3 30 6.6 30 10 C29.34 10 28.68 10 28 10 C26.98133771 8.34467377 25.98189187 6.67739862 25 5 C22.43106162 3.71553081 20.23423663 3.67022856 17.375 3.4375 C16.37210937 3.35371094 15.36921875 3.26992187 14.3359375 3.18359375 C13.56507813 3.12300781 12.79421875 3.06242187 12 3 C12 2.67 12 2.34 12 2 C8.04 2 4.08 2 0 2 C0 1.34 0 0.68 0 0 Z " fill="#894642" transform="translate(433,78)"/>
<path d="M0 0 C0.33 0 0.66 0 1 0 C1.02578125 0.72445312 1.0515625 1.44890625 1.078125 2.1953125 C1.53039281 10.35942161 1.53039281 10.35942161 6 17 C8.70154194 18.05892179 11.10815533 18.51802589 14 19 C14 19.33 14 19.66 14 20 C12.10545628 20.10877763 10.20908246 20.18594173 8.3125 20.25 C6.72888672 20.31960937 6.72888672 20.31960937 5.11328125 20.390625 C2 20 2 20 -3 16 C-2.01 10.72 -1.02 5.44 0 0 Z " fill="#874541" transform="translate(326,101)"/>
<path d="M0 0 C4.29 0 8.58 0 13 0 C13 0.99 13 1.98 13 3 C11.329375 3.12375 11.329375 3.12375 9.625 3.25 C7.830625 3.62125 7.830625 3.62125 6 4 C4.6830333 5.88370471 4.6830333 5.88370471 4 8 C3.01 8.66 2.02 9.32 1 10 C0.01 11.485 0.01 11.485 -1 13 C-1 12.34 -1 11.68 -1 11 C-1.66 10.67 -2.32 10.34 -3 10 C-2.360625 9.401875 -1.72125 8.80375 -1.0625 8.1875 C1.20310389 6.09189663 1.20310389 6.09189663 2 3 C1.34 3 0.68 3 0 3 C0 2.01 0 1.02 0 0 Z " fill="#8D4A4A" transform="translate(402,92)"/>
<path d="M0 0 C0.33 0 0.66 0 1 0 C1 4.95 1 9.9 1 15 C5.455 14.505 5.455 14.505 10 14 C10 15.32 10 16.64 10 18 C11.32 17.01 12.64 16.02 14 15 C14 15.66 14 16.32 14 17 C14.66 17.33 15.32 17.66 16 18 C15.34 18 14.68 18 14 18 C13.67 19.32 13.34 20.64 13 22 C12.01 21.34 11.02 20.68 10 20 C7.00701243 19.452061 4.03688851 19.26407726 1 19 C1 23.95 1 28.9 1 34 C0.67 34 0.34 34 0 34 C0 28.72 0 23.44 0 18 C3.96 17.505 3.96 17.505 8 17 C5.36 16.67 2.72 16.34 0 16 C0 10.72 0 5.44 0 0 Z " fill="#A0726E" transform="translate(292,81)"/>
<path d="M0 0 C2.75 -0.3125 2.75 -0.3125 6 0 C8.375 2.1875 8.375 2.1875 10 5 C10 6.65 10 8.3 10 10 C4.72 10 -0.56 10 -6 10 C-6 9.67 -6 9.34 -6 9 C-1.545 8.505 -1.545 8.505 3 8 C2.45276317 4.62537285 1.9451 2.91765 0 0 Z " fill="#772C2A" transform="translate(661,93)"/>
<path d="M0 0 C0.33 0.66 0.66 1.32 1 2 C3.31 2 5.62 2 8 2 C8.33 1.34 8.66 0.68 9 0 C9.33 0.33 9.66 0.66 10 1 C11.918125 0.938125 11.918125 0.938125 13.875 0.875 C17.74095683 0.80571762 17.74095683 0.80571762 20 2.5 C20.33 2.995 20.66 3.49 21 4 C18.44276771 5.27861615 16.63262898 5.11336609 13.7734375 5.09765625 C12.7421875 5.09443359 11.7109375 5.09121094 10.6484375 5.08789062 C9.02808594 5.07532227 9.02808594 5.07532227 7.375 5.0625 C5.74304688 5.05573242 5.74304688 5.05573242 4.078125 5.04882812 C1.38536211 5.03701776 -1.30729188 5.02054778 -4 5 C-4 4.01 -4 3.02 -4 2 C-2.68 1.34 -1.36 0.68 0 0 Z " fill="#985E57" transform="translate(285,116)"/>
<path d="M0 0 C1.8125 1.25 1.8125 1.25 3 3 C3 4.32 3 5.64 3 7 C-0.96 7 -4.92 7 -9 7 C-7.61133652 1.44534609 -5.99008641 -0.89851296 0 0 Z " fill="#E1DCD8" transform="translate(662,94)"/>
<path d="M0 0 C-1.1875 1.9375 -1.1875 1.9375 -3 4 C-3.845625 4.144375 -4.69125 4.28875 -5.5625 4.4375 C-6.7690625 4.7159375 -6.7690625 4.7159375 -8 5 C-9.37466625 7.47636012 -9.37466625 7.47636012 -10 10 C-11.65 10 -13.3 10 -15 10 C-14.92222823 7.27798809 -14.52551921 5.5508275 -12.62109375 3.5546875 C-8.41740424 0.26320802 -5.45215824 -0.55634268 0 0 Z " fill="#7D3430" transform="translate(593,91)"/>
<path d="M0 0 C0.77085937 -0.01417969 1.54171875 -0.02835937 2.3359375 -0.04296875 C4.84334888 0.20948393 6.45761902 0.93556533 8.625 2.1875 C7.635 2.6825 7.635 2.6825 6.625 3.1875 C5.965 2.8575 5.305 2.5275 4.625 2.1875 C4.295 3.1775 3.965 4.1675 3.625 5.1875 C3.295 4.8575 2.965 4.5275 2.625 4.1875 C-0.24864791 3.77003392 -0.24864791 3.77003392 -3.375 4.1875 C-5.75219693 6.06251931 -5.75219693 6.06251931 -7.375 8.1875 C-7.705 7.1975 -8.035 6.2075 -8.375 5.1875 C-9.365 5.1875 -10.355 5.1875 -11.375 5.1875 C-5.06772412 0.04209073 -5.06772412 0.04209073 0 0 Z " fill="#8E4945" transform="translate(334.375,90.8125)"/>
<path d="M0 0 C1 1 1 1 1.0625 3.5625 C1.041875 4.366875 1.02125 5.17125 1 6 C-2.37817425 6.84454356 -4.67465243 7.10844919 -8 6 C-8.33 6.66 -8.66 7.32 -9 8 C-8.64005447 5.3364031 -8.28838998 3.41816548 -6.75 1.1875 C-4.3961523 -0.40975379 -2.78481156 -0.29313806 0 0 Z " fill="#85413E" transform="translate(695,91)"/>
<path d="M0 0 C3.58513106 1.62184501 6.58992323 3.79256239 9.75 6.125 C11.22726563 7.21167969 11.22726563 7.21167969 12.734375 8.3203125 C13.48203125 8.87460938 14.2296875 9.42890625 15 10 C12 11 12 11 8.64453125 9.56640625 C7.3619696 8.90851193 6.08475943 8.24010257 4.8125 7.5625 C4.15830078 7.22412109 3.50410156 6.88574219 2.83007812 6.53710938 C1.21540701 5.70030902 -0.39292763 4.85130254 -2 4 C-1.34 2.68 -0.68 1.36 0 0 Z " fill="#E0D7D5" transform="translate(50,119)"/>
<path d="M0 0 C4.16748629 2.08374314 5.28523977 2.80836388 7 7 C6.1875 10.3125 6.1875 10.3125 5 13 C4.67 12.01 4.34 11.02 4 10 C2.68 10 1.36 10 0 10 C0 6.7 0 3.4 0 0 Z " fill="#E6E3DE" transform="translate(396,108)"/>
<path d="M0 0 C0.33 0 0.66 0 1 0 C1 13.53 1 27.06 1 41 C2.32 41.33 3.64 41.66 5 42 C5 42.66 5 43.32 5 44 C3.35 44 1.7 44 0 44 C0 29.48 0 14.96 0 0 Z " fill="#782826" transform="translate(43,80)"/>
<path d="M0 0 C3.96 0 7.92 0 12 0 C10 4 10 4 8 5 C5.3276379 5.13415472 2.67749512 5.04318541 0 5 C-0.33 4.01 -0.66 3.02 -1 2 C-0.67 1.34 -0.34 0.68 0 0 Z " fill="#8A4741" transform="translate(612,116)"/>
<path d="M0 0 C0.66 0.66 1.32 1.32 2 2 C2.99 1.34 3.98 0.68 5 0 C7.26171875 -0.1953125 7.26171875 -0.1953125 9.6875 -0.125 C10.89986328 -0.09792969 10.89986328 -0.09792969 12.13671875 -0.0703125 C13.05904297 -0.03550781 13.05904297 -0.03550781 14 0 C12.39390588 2.6112325 11.49087167 3.82670505 8.5546875 4.86328125 C7.67039062 5.01152344 6.78609375 5.15976563 5.875 5.3125 C4.54082031 5.55419922 4.54082031 5.55419922 3.1796875 5.80078125 C2.46039062 5.86652344 1.74109375 5.93226562 1 6 C0 5 0 5 -0.0625 2.4375 C-0.041875 1.633125 -0.02125 0.82875 0 0 Z " fill="#8E4E48" transform="translate(533,92)"/>
<path d="M0 0 C0.66 0 1.32 0 2 0 C2 2.64 2 5.28 2 8 C2.66 8 3.32 8 4 8 C4.33 7.34 4.66 6.68 5 6 C4.6875 9.375 4.6875 9.375 4 13 C3.01 13.66 2.02 14.32 1 15 C-0.00109515 11.68929162 -0.10356134 8.69915231 -0.0625 5.25 C-0.05347656 4.26515625 -0.04445313 3.2803125 -0.03515625 2.265625 C-0.02355469 1.51796875 -0.01195312 0.7703125 0 0 Z " fill="#6D1E1C" transform="translate(490,102)"/>
<path d="M0 0 C3.95827235 -0.05785647 7.9164367 -0.09354717 11.875 -0.125 C13.00292969 -0.14175781 14.13085938 -0.15851563 15.29296875 -0.17578125 C16.36933594 -0.18222656 17.44570313 -0.18867187 18.5546875 -0.1953125 C19.54968262 -0.20578613 20.54467773 -0.21625977 21.56982422 -0.22705078 C24 0 24 0 26 2 C24.68 2 23.36 2 22 2 C21.67 2.66 21.34 3.32 21 4 C18.03 3.67 15.06 3.34 12 3 C12 2.67 12 2.34 12 2 C8.04 2 4.08 2 0 2 C0 1.34 0 0.68 0 0 Z " fill="#975B56" transform="translate(281,78)"/>
<path d="M0 0 C4.29 0.33 8.58 0.66 13 1 C13 1.99 13 2.98 13 4 C9.04 4 5.08 4 1 4 C0.67 2.68 0.34 1.36 0 0 Z " fill="#6E1C19" transform="translate(224,133)"/>
<path d="M0 0 C2.08304538 -0.05418326 4.16649768 -0.09287551 6.25 -0.125 C7.99023438 -0.15980469 7.99023438 -0.15980469 9.765625 -0.1953125 C12.82786046 -0.0103949 14.44202751 0.39176977 17 2 C16.01 2.33 15.02 2.66 14 3 C13.67 3.66 13.34 4.32 13 5 C9.04 5 5.08 5 1 5 C1 4.67 1 4.34 1 4 C4.07617188 3.70703125 4.07617188 3.70703125 7.15234375 3.4140625 C7.76207031 3.27742188 8.37179688 3.14078125 9 3 C9.33 2.34 9.66 1.68 10 1 C6.7 1 3.4 1 0 1 C0 0.67 0 0.34 0 0 Z " fill="#8A4642" transform="translate(227,59)"/>
<path d="M0 0 C6.16456476 0.37742233 9.17375515 2.15870308 14 6 C13.67 7.32 13.34 8.64 13 10 C11.39320484 8.89966185 9.78966207 7.79457336 8.1875 6.6875 C7.29417969 6.07261719 6.40085937 5.45773438 5.48046875 4.82421875 C3.43899254 3.32284963 1.71537213 1.85214599 0 0 Z " fill="#894841" transform="translate(58,64)"/>
<path d="M0 0 C3.99030365 0.93390085 6.87969402 2.35974109 10 5 C9.67 5.66 9.34 6.32 9 7 C4.76570244 5.68938409 0.92592596 4.05643741 -3 2 C-2.01 1.34 -1.02 0.68 0 0 Z " fill="#8D4E48" transform="translate(48,123)"/>
<path d="M0 0 C0.99 0 1.98 0 3 0 C1.60812281 3.36370321 0.20568604 5.21906331 -3 7 C-6.25 7.1875 -6.25 7.1875 -9 7 C-8.67 6.01 -8.34 5.02 -8 4 C-5.67793475 3.29508733 -3.34406932 2.62787571 -1 2 C-0.67 1.34 -0.34 0.68 0 0 Z " fill="#752A29" transform="translate(668,113)"/>
<path d="M0 0 C4.455 2.97 4.455 2.97 9 6 C8.67 6.99 8.34 7.98 8 9 C4.18315774 7.44499019 1.80804268 4.96404505 -1 2 C-0.67 1.34 -0.34 0.68 0 0 Z " fill="#864643" transform="translate(52,116)"/>
<path d="M0 0 C0.66 0 1.32 0 2 0 C2 4.62 2 9.24 2 14 C1.34 14 0.68 14 0 14 C-1.33257403 4.58997722 -1.33257403 4.58997722 0 0 Z " fill="#793431" transform="translate(456,92)"/>
<path d="M0 0 C-0.66 0.66 -1.32 1.32 -2 2 C-1.67 2.99 -1.34 3.98 -1 5 C-3.64 4.67 -6.28 4.34 -9 4 C-8.67 3.01 -8.34 2.02 -8 1 C-2.59770115 -1.29885057 -2.59770115 -1.29885057 0 0 Z " fill="#C0A9A8" transform="translate(121,93)"/>
<path d="M0 0 C1.32 0.33 2.64 0.66 4 1 C4 7.6 4 14.2 4 21 C3.67 21 3.34 21 3 21 C3 15.06 3 9.12 3 3 C2.34 3 1.68 3 1 3 C0.67 2.01 0.34 1.02 0 0 Z " fill="#782925" transform="translate(71,71)"/>
<path d="M0 0 C0.33 0 0.66 0 1 0 C1 4.62 1 9.24 1 14 C0.67 14 0.34 14 0 14 C0 11.69 0 9.38 0 7 C-0.99 7.33 -1.98 7.66 -3 8 C-5.1875 7.0625 -5.1875 7.0625 -7 6 C-3.535 5.505 -3.535 5.505 0 5 C0 3.35 0 1.7 0 0 Z " fill="#965F5A" transform="translate(593,99)"/>
<path d="M0 0 C0.66 0 1.32 0 2 0 C0.92776619 2.22694714 -0.17554489 4.25980644 -1.5625 6.3125 C-3.28978782 9.54177723 -3.64505574 12.37956857 -4 16 C-4.33 16 -4.66 16 -5 16 C-5.54848998 9.8569122 -4.67398815 6.61542058 -1.2890625 1.46875 C-0.65097656 0.74171875 -0.65097656 0.74171875 0 0 Z " fill="#8C4742" transform="translate(472,94)"/>
<path d="M0 0 C-1.485 1.98 -1.485 1.98 -3 4 C-5.31 3.67 -7.62 3.34 -10 3 C-7.29536552 -0.8183075 -4.37912428 -0.24787496 0 0 Z " fill="#965D59" transform="translate(593,91)"/>
<path d="M0 0 C0.33 0.66 0.66 1.32 1 2 C1.99 2 2.98 2 4 2 C4.33 1.34 4.66 0.68 5 0 C5 0.66 5 1.32 5 2 C5.99 2.33 6.98 2.66 8 3 C7.195625 3.226875 6.39125 3.45375 5.5625 3.6875 C4.716875 4.120625 3.87125 4.55375 3 5 C2.10613836 7.54775306 2.10613836 7.54775306 2 10 C1.67 10 1.34 10 1 10 C0.63883954 8.5225254 0.28624952 7.04295325 -0.0625 5.5625 C-0.25972656 4.73878906 -0.45695313 3.91507812 -0.66015625 3.06640625 C-0.82837891 2.04353516 -0.82837891 2.04353516 -1 1 C-0.67 0.67 -0.34 0.34 0 0 Z " fill="#D6CDC7" transform="translate(670,94)"/>
<path d="M0 0 C1.21236328 0.02707031 1.21236328 0.02707031 2.44921875 0.0546875 C3.37154297 0.08949219 3.37154297 0.08949219 4.3125 0.125 C1.50455195 3.22544264 -0.46277764 3.86095485 -4.6875 4.125 C-5.6775 3.465 -6.6675 2.805 -7.6875 2.125 C-4.48369983 -0.01086678 -3.66810033 -0.10632175 0 0 Z " fill="#9D6965" transform="translate(481.6875,90.875)"/>
<path d="M0 0 C3.95820859 0.56545837 6.6659053 1.80902348 10 4 C8.375 4.6875 8.375 4.6875 6 5 C2.75 3.5625 2.75 3.5625 0 2 C0 1.34 0 0.68 0 0 Z " fill="#742622" transform="translate(57,128)"/>
<path d="M0 0 C0.91058531 3.07322544 1.08886184 5.80097361 1 9 C0.67 8.525625 0.34 8.05125 0 7.5625 C-3.09813267 5.14208385 -6.12026792 5.31801083 -10 5 C-10 4.67 -10 4.34 -10 4 C-5.545 3.505 -5.545 3.505 -1 3 C-0.67 2.01 -0.34 1.02 0 0 Z " fill="#925450" transform="translate(455,93)"/>
<path d="M0 0 C0.86625 0.3403125 0.86625 0.3403125 1.75 0.6875 C0.780625 1.244375 -0.18875 1.80125 -1.1875 2.375 C-4.43991279 4.36785805 -4.43991279 4.36785805 -5.125 7.4375 C-5.16625 8.18 -5.2075 8.9225 -5.25 9.6875 C-5.58 9.6875 -5.91 9.6875 -6.25 9.6875 C-6.5 6.375 -6.5 6.375 -6.25 2.6875 C-4.13578911 0.27125898 -3.2149628 -0.44652261 0 0 Z " fill="#742827" transform="translate(588.25,106.3125)"/>
<path d="M0 0 C1.41623216 -0.05447047 2.83308191 -0.09300508 4.25 -0.125 C5.03890625 -0.14820312 5.8278125 -0.17140625 6.640625 -0.1953125 C9.20731941 0.0171622 10.7916067 0.71345895 13 2 C12.01 2.495 12.01 2.495 11 3 C10.34 2.67 9.68 2.34 9 2 C8.67 2.99 8.34 3.98 8 5 C7.67 3.68 7.34 2.36 7 1 C4.69 1 2.38 1 0 1 C0 0.67 0 0.34 0 0 Z " fill="#AA7772" transform="translate(330,91)"/>
<path d="M0 0 C3.79450934 0.39253545 5.51015791 2.24338912 8 5 C4.17902761 4.46930939 1.93828597 3.50298434 -1 1 C-0.67 0.67 -0.34 0.34 0 0 Z " fill="#CCB8B6" transform="translate(57,125)"/>
<path d="M0 0 C2.64 0 5.28 0 8 0 C7.34 1.32 6.68 2.64 6 4 C4.02 3.34 2.04 2.68 0 2 C0 1.34 0 0.68 0 0 Z " fill="#A16C64" transform="translate(616,116)"/>
<path d="M0 0 C3.26954202 0.56371414 4.82575883 1.49962266 7 4 C6.34 4.66 5.68 5.32 5 6 C3.31237149 4.3545622 1.6459651 2.68711423 0 1 C0 0.67 0 0.34 0 0 Z " fill="#7D3836" transform="translate(59,123)"/>
<path d="M0 0 C1.74627478 2.61941217 2.38722388 4.03824877 3 7 C1.35 7.33 -0.3 7.66 -2 8 C-1.34 5.36 -0.68 2.72 0 0 Z " fill="#7D2E2C" transform="translate(489,111)"/>
<path d="M0 0 C1.98 0 3.96 0 6 0 C6 0.66 6 1.32 6 2 C3.69 2.33 1.38 2.66 -1 3 C-0.67 2.01 -0.34 1.02 0 0 Z " fill="#80403B" transform="translate(596,118)"/>
<path d="M0 0 C-0.66 1.65 -1.32 3.3 -2 5 C-4.5 3.625 -4.5 3.625 -7 2 C-7 1.34 -7 0.68 -7 0 C-2.25 -1.125 -2.25 -1.125 0 0 Z " fill="#813937" transform="translate(682,94)"/>
<path d="M0 0 C1.4540625 0.0309375 1.4540625 0.0309375 2.9375 0.0625 C2.339375 0.330625 1.74125 0.59875 1.125 0.875 C-1.10577908 1.9518979 -1.10577908 1.9518979 -2.6875 3.6875 C-3.14125 4.14125 -3.595 4.595 -4.0625 5.0625 C-4.7225 5.0625 -5.3825 5.0625 -6.0625 5.0625 C-3.64893617 0.07446809 -3.64893617 0.07446809 0 0 Z " fill="#782927" transform="translate(366.0625,91.9375)"/>
</svg>
